<?xml version="1.0" encoding="UTF-8" standalone="no"?>
<!-- Generator: Adobe Illustrator 18.1.1, SVG Export Plug-In . SVG Version: 6.00 Build 0)  -->

<svg
   xmlns:dc="http://purl.org/dc/elements/1.1/"
   xmlns:cc="http://creativecommons.org/ns#"
   xmlns:rdf="http://www.w3.org/1999/02/22-rdf-syntax-ns#"
   xmlns:svg="http://www.w3.org/2000/svg"
   xmlns="http://www.w3.org/2000/svg"
   xmlns:sodipodi="http://sodipodi.sourceforge.net/DTD/sodipodi-0.dtd"
   xmlns:inkscape="http://www.inkscape.org/namespaces/inkscape"
   version="1.1"
   id="Capa_1"
   x="0px"
   y="0px"
   viewBox="0 0 32 32"
   style="enable-background:new 0 0 32 32;"
   xml:space="preserve"
   inkscape:version="0.91 r13725"
   sodipodi:docname="Icon_CC BY-SA 3.0.svg"><metadata
     id="metadata44"><rdf:RDF><cc:Work
         rdf:about=""><dc:format>image/svg+xml</dc:format><dc:type
           rdf:resource="http://purl.org/dc/dcmitype/StillImage" /><dc:title></dc:title></cc:Work></rdf:RDF></metadata><defs
     id="defs42" /><sodipodi:namedview
     pagecolor="#ffffff"
     bordercolor="#666666"
     borderopacity="1"
     objecttolerance="10"
     gridtolerance="10"
     guidetolerance="10"
     inkscape:pageopacity="0"
     inkscape:pageshadow="2"
     inkscape:window-width="1366"
     inkscape:window-height="705"
     id="namedview40"
     showgrid="false"
     inkscape:zoom="5.2149125"
     inkscape:cx="26.648637"
     inkscape:cy="11.362692"
     inkscape:window-x="-8"
     inkscape:window-y="-8"
     inkscape:window-maximized="1"
     inkscape:current-layer="Capa_1" /><g
     id="g3"
     transform="matrix(0.88015139,0,0,0.88015139,1.9175777,2.545696)"
     style="fill:#ff2a2a"><g
       id="bubble"
       style="fill:#ff2a2a"><path
         style="fill:#ff2a2a"
         d="M 16,7 C 10.037,7 5,10.206 5,14 5,14.276 5.224,14.5 5.5,14.5 5.776,14.5 6,14.276 6,14 6,10.804 10.673,8 16,8 16.275,8 16.5,7.776 16.5,7.5 16.5,7.224 16.276,7 16,7 Z"
         id="path6"
         inkscape:connector-curvature="0" /><path
         style="fill:#ff2a2a"
         d="M 16,2 C 7.163,2 0,7.373 0,14 0,18.127 2.779,21.766 7.008,23.926 7.008,23.953 7,23.971 7,24 c 0,1.793 -1.339,3.723 -1.928,4.736 0.001,0 0.002,0 0.002,0 C 5.027,28.846 5,28.967 5,29.094 5,29.594 5.405,30 5.906,30 6,30 6.165,29.975 6.161,29.986 9.286,29.474 12.23,26.603 12.914,25.771 13.913,25.918 14.943,26 16,26 24.835,26 32,20.627 32,14 32,7.373 24.836,2 16,2 Z m 0,22 c -0.917,0 -1.858,-0.07 -2.796,-0.207 -0.097,-0.016 -0.194,-0.021 -0.29,-0.021 -0.594,0 -1.163,0.264 -1.546,0.73 -0.428,0.521 -1.646,1.684 -3.085,2.539 0.39,-0.895 0.695,-1.898 0.716,-2.932 0.006,-0.064 0.009,-0.129 0.009,-0.184 0,-0.752 -0.421,-1.439 -1.09,-1.781 C 4.212,20.252 2,17.207 2,14 2,8.486 8.28,4 16,4 c 7.718,0 14,4.486 14,10 0,5.514 -6.281,10 -14,10 z"
         id="path8"
         inkscape:connector-curvature="0" /></g></g><g
     id="g10" /><g
     id="g12" /><g
     id="g14" /><g
     id="g16" /><g
     id="g18" /><g
     id="g20" /><g
     id="g22" /><g
     id="g24" /><g
     id="g26" /><g
     id="g28" /><g
     id="g30" /><g
     id="g32" /><g
     id="g34" /><g
     id="g36" /><g
     id="g38" /><g
     id="g4188"
     transform="matrix(0.88015139,0,0,0.88015139,-66.65951,-54.675015)"><g
       id="g4194"
       transform="matrix(0.26992158,0,0,0.26992158,82.42756,48.747331)"><path
         style="fill:#335599"
         inkscape:connector-curvature="0"
         d="m 90,60 -67,8 0,80 67,8"
         id="path4178" /><path
         style="fill:#ffffff"
         inkscape:connector-curvature="0"
         d="m 40,92 6,32 6,0 5,-22 5,22 6,0 6,-32 -5.3,0 -4,22 -5,-22 -6,0 -4,22 -5,-22"
         id="path4180" /></g></g><g
     transform="matrix(0.88015139,0,0,0.88015139,1.9175777,2.545696)"
     id="g4198"><g
       id="g4200"><path
         inkscape:connector-curvature="0"
         id="path4202"
         d="M 16,7 C 10.037,7 5,10.206 5,14 5,14.276 5.224,14.5 5.5,14.5 5.776,14.5 6,14.276 6,14 6,10.804 10.673,8 16,8 16.275,8 16.5,7.776 16.5,7.5 16.5,7.224 16.276,7 16,7 Z"
         style="fill:#ff0000" /><path
         style="fill:#ff0000"
         d="m 1.2910156,16.083984 c 0.9830042,2.222422 2.9220039,4.117364 5.453125,5.410157 0,0.02376 -0.00781,0.04088 -0.00781,0.06641 0,1.578111 -1.1788564,3.276375 -1.6972656,4.167969 l 0.00195,0 c -0.041367,0.09682 -0.064453,0.202674 -0.064453,0.314453 0,0.440075 0.3559192,0.798828 0.796875,0.798828 0.082734,0 0.22813,-0.02335 0.2246094,-0.01367 2.7504731,-0.450638 5.3413361,-2.976698 5.9433591,-3.708984 0.879271,0.129382 1.786477,0.201171 2.716797,0.201171 6.225386,0 11.499711,-3.034611 13.359375,-7.236328 l -1.957031,0 c -1.840838,3.208715 -6.25553,5.476563 -11.402344,5.476563 -0.807099,0 -1.635355,-0.06301 -2.460937,-0.183594 -0.08538,-0.01408 -0.171365,-0.01758 -0.25586,-0.01758 -0.52281,0 -1.02423,0.232428 -1.361328,0.642578 -0.376705,0.458559 -1.4483058,1.481846 -2.7148436,2.234375 0.343259,-0.787735 0.6123762,-1.670001 0.6308594,-2.580078 0.00528,-0.05633 0.00781,-0.113701 0.00781,-0.162109 0,-0.661874 -0.370163,-1.267348 -0.9589843,-1.56836 -1.9287264,-0.98466 -3.3831452,-2.32783 -4.2617188,-3.841797 l -1.9921875,0 z"
         transform="matrix(1.1361682,0,0,1.1361682,-0.65360723,-0.49577889)"
         id="path4204"
         inkscape:connector-curvature="0" /></g></g></svg>